<svg width="21" height="21" viewBox="0 0 21 21" fill="none" xmlns="http://www.w3.org/2000/svg">
<path d="M6.50773 20.3604L14.6183 12.249L18.2151 12.249C18.7829 12.249 19.3551 12.123 19.8889 11.8745L20.2388 11.6899C20.7086 11.4721 21 11.0162 21 10.4991C21 9.98204 20.7086 9.52619 20.259 9.31797L19.8696 9.1141C19.3552 8.87524 18.7838 8.74925 18.2151 8.74925L14.6183 8.74925L6.50945 0.640446C6.0965 0.227494 5.54792 -6.75432e-07 4.96346 -7.00979e-07L3.93803 -7.45802e-07C3.77792 -7.52801e-07 3.63093 0.0874782 3.55481 0.227494C3.47783 0.367468 3.48308 0.538981 3.57056 0.673706L8.85424 8.919C7.53049 9.00037 6.42546 9.11061 5.08067 9.24533L3.70266 9.38445L1.67896 6.32133C1.59673 6.19797 1.46024 6.12447 1.31325 6.12447L0.438339 6.12447C0.306238 6.12447 0.18025 6.18484 0.0971181 6.28807C0.0131242 6.3922 -0.0183719 6.52779 0.0104997 6.6564L0.865316 10.4991L0.0104993 14.3418C0.00348601 14.3733 -6.29652e-07 14.4047 -6.31028e-07 14.4362C-6.35351e-07 14.5351 0.0332597 14.6313 0.0962556 14.7101C0.180248 14.8133 0.306238 14.8737 0.438339 14.8737L1.31325 14.8737C1.46024 14.8737 1.59759 14.8002 1.67809 14.6768L3.69918 11.6137L5.08157 11.7528C6.4246 11.8875 7.52873 11.9978 8.85252 12.0792L3.5706 20.3244C3.48312 20.4601 3.47874 20.6307 3.55485 20.7698C3.63097 20.9107 3.77796 20.9982 3.93807 20.9982L4.9635 20.9982C5.54792 20.9982 6.0965 20.7716 6.50773 20.3604Z" fill="#087C60"/>
</svg>
